<svg xmlns="http://www.w3.org/2000/svg" width="177.195" height="42.276"><g id="Group_157" data-name="Group 157" transform="translate(6855.472 -5962)"><path id="Path_196" data-name="Path 196" d="M6.479 0h18.14A6.479 6.479 0 0131.1 6.479v18.14a6.479 6.479 0 01-6.481 6.481H6.479A6.479 6.479 0 010 24.619V6.479A6.479 6.479 0 016.479 0z" transform="rotate(61 -8471.167 -2813.739)" fill="#7164ff"/><g id="Group_156" data-name="Group 156" transform="translate(-6842.878 5969)"><g id="Group_10" data-name="Group 10" fill="#fff"><path id="Path_7" data-name="Path 7" d="M796.344 512.628v11.941a1.361 1.361 0 002.034 1.183l2.023-1.15a1.361 1.361 0 00.688-1.183v-9.535a1.361 1.361 0 00-.643-1.156l-2.022-1.255a1.361 1.361 0 00-2.08 1.155z" transform="translate(-796.344 -497.811)"/><path id="Path_8" data-name="Path 8" d="M796.344 493.569v-2.33a1.361 1.361 0 012.108-1.137l9.671 6.351a1.362 1.362 0 01.614 1.138v9.727a1.361 1.361 0 01-.682 1.179l-1.818 1.048a1.361 1.361 0 01-2.041-1.179v-8.346a1.361 1.361 0 00-.636-1.152l-6.582-4.148a1.361 1.361 0 01-.634-1.151z" transform="translate(-796.344 -485.753)"/><path id="Path_9" data-name="Path 9" d="M813.594 483.883v-2.092a1.361 1.361 0 012.127-1.126l9.18 6.246a1.361 1.361 0 01.6 1.126v9.584a1.362 1.362 0 01-.672 1.174l-1.532.9a1.361 1.361 0 01-2.05-1.174v-8.138a1.362 1.362 0 00-.613-1.137l-6.422-4.224a1.362 1.362 0 01-.618-1.139z" transform="translate(-806.068 -480.427)"/></g></g><path id="Path_197" data-name="Path 197" d="M1.1-16.656V0h3.988v-11.592L9.36 0h3.74l4.248-11.592V0h4.012v-16.656H15.5L11.232-5.664 6.96-16.656zm33.6 9.288a8.842 8.842 0 001.1-.528 2.89 2.89 0 00.864-.756 3.491 3.491 0 00.564-1.188 6.829 6.829 0 00.2-1.824 7.478 7.478 0 00-.288-2.172 3.821 3.821 0 00-.924-1.6 4.041 4.041 0 00-1.668-.984 8.213 8.213 0 00-2.52-.336h-2.46a6.47 6.47 0 00-2.724.48 3.639 3.639 0 00-1.56 1.32 4.949 4.949 0 00-.708 1.98 16.9 16.9 0 00-.168 2.46h4.008a11.389 11.389 0 01.072-1.4 1.959 1.959 0 01.312-.9 1.243 1.243 0 01.66-.468 3.937 3.937 0 011.14-.132h.888a3.013 3.013 0 011.032.144 1.34 1.34 0 01.588.4 1.29 1.29 0 01.264.612 4.833 4.833 0 01.06.792 1.7 1.7 0 01-.12.7 1.3 1.3 0 01-.324.444 1.809 1.809 0 01-.48.3q-.276.12-.588.24l-3.336 1.2a13.255 13.255 0 00-1.644.72 5.411 5.411 0 00-1.368 1.008 4.423 4.423 0 00-.936 1.456 5.59 5.59 0 00-.348 2.088V0h13.056v-3.336H28.3v-.5a1.314 1.314 0 01.528-1.116 5.71 5.71 0 011.44-.732zm5.424-9.288V0h3.984v-11.592L48.384 0h3.744l4.248-11.592V0h4.008v-16.656h-5.856L50.256-5.664l-4.272-10.992zM69.144 0h2.28a15.992 15.992 0 003.288-.276A3.688 3.688 0 0076.7-1.332a4.315 4.315 0 00.988-2.168 19.969 19.969 0 00.264-3.6v-2.836a15.028 15.028 0 00-.324-3.432 4.355 4.355 0 00-1.092-2.112 4.186 4.186 0 00-2.088-1.068 15.152 15.152 0 00-3.288-.3H69.1a13.631 13.631 0 00-3.12.3 3.951 3.951 0 00-1.992 1.08 4.471 4.471 0 00-1.056 2.124 15.451 15.451 0 00-.312 3.408V-7.1a17.776 17.776 0 00.3 3.624 4.346 4.346 0 001.04 2.156 3.859 3.859 0 002 1.044A15.234 15.234 0 0069.144 0zm.432-13.248h1.368a5.357 5.357 0 011.4.156 1.871 1.871 0 01.912.54 2.32 2.32 0 01.5 1.044 7.426 7.426 0 01.164 1.668v2.54a8.717 8.717 0 01-.144 1.728 2.614 2.614 0 01-.492 1.128 1.947 1.947 0 01-.912.624 4.5 4.5 0 01-1.428.192h-1.368a4.406 4.406 0 01-1.4-.192 1.908 1.908 0 01-.9-.612 2.607 2.607 0 01-.48-1.116 8.569 8.569 0 01-.144-1.7v-2.64a7.263 7.263 0 01.156-1.656 2.3 2.3 0 01.492-1.02 1.839 1.839 0 01.9-.528 5.247 5.247 0 011.376-.156zm18.768-3.408H80.16V0h9.12a8 8 0 002.112-.24 3.011 3.011 0 001.4-.8 3.309 3.309 0 00.78-1.5 9.669 9.669 0 00.24-2.352 8.84 8.84 0 00-.168-1.9 3.535 3.535 0 00-.456-1.176 1.718 1.718 0 00-.7-.624 3.182 3.182 0 00-.888-.264 3.131 3.131 0 00.6-.324 1.353 1.353 0 00.42-.528 3.254 3.254 0 00.252-.936 11.632 11.632 0 00.084-1.572 8.072 8.072 0 00-.216-1.992 3 3 0 00-.744-1.38 3.217 3.217 0 00-1.416-.8 7.969 7.969 0 00-2.236-.268zm-4.176 6.264v-2.952h3.456a1.236 1.236 0 011.032.4 1.722 1.722 0 01.312 1.092 1.653 1.653 0 01-.312 1.1 1.3 1.3 0 01-1.032.36zm0 7.056v-3.72H88.2a1.624 1.624 0 011.164.42 1.907 1.907 0 01.444 1.428 1.976 1.976 0 01-.432 1.464 1.643 1.643 0 01-1.176.408zM96.336 0h4.008v-16.656h-4.008zm7.056-16.656V0h10.224v-3.336H107.4v-13.32zm12.528 0V0h11.5v-3.336h-7.488v-3.6h6.96v-3.336h-6.96v-3.072h7.488v-3.312z" transform="translate(-6805.692 5992)" fill="#fff"/></g></svg>